Coordinates
version=1
nRows=10
nColumns=40
inDegrees=yes

Units are S.I. units (second, meters, Newtons, ...)
Angles are in degrees.

endheader
time	pelvis_tilt	pelvis_list	pelvis_rotation	pelvis_tx	pelvis_ty	pelvis_tz	hip_flexion_r	hip_adduction_r	hip_rotation_r	knee_angle_r	knee_angle_r_beta	ankle_angle_r	subtalar_angle_r	mtp_angle_r	hip_flexion_l	hip_adduction_l	hip_rotation_l	knee_angle_l	knee_angle_l_beta	ankle_angle_l	subtalar_angle_l	mtp_angle_l	lumbar_extension	lumbar_bending	lumbar_rotation	arm_flex_r	arm_add_r	arm_rot_r	elbow_flex_r	pro_sup_r	wrist_flex_r	wrist_dev_r	arm_flex_l	arm_add_l	arm_rot_l	elbow_flex_l	pro_sup_l	wrist_flex_l	wrist_dev_l
     18.51750000	     -2.96802032	     -4.39322409	     -1.55768875	      0.79727150	      0.91994130	      0.48320246	     21.39208473	      1.45937874	    -11.65899560	     24.83562444	     24.83562444	      8.09154148	     -5.73103697	     -3.26172266	      5.40096017	     -9.37911042	     -5.30464544	     39.97195289	     39.97195289	     14.14489149	    -16.73260618	     -5.51313574	     -8.76211682	      7.66255478	      0.98579873	     -4.47068385	    -11.52647807	     -6.86159611	     27.57532532	     46.49755557	      0.00000000	      0.00000000	      8.29166795	    -11.46106214	    -13.79736784	     64.89165728	     47.21039981	      0.00000000	      0.00000000
     18.53114286	     -2.97755750	     -4.42185558	     -1.17281597	      0.79692612	      0.92104301	      0.48544762	     20.64491671	      1.55034254	    -12.17314579	     24.33723233	     24.33723233	      8.38065468	     -5.28872827	     -3.51748164	      7.69953362	     -9.73462071	     -4.27520998	     44.30961316	     44.30961316	     13.33781137	    -17.36341890	     -2.74584378	     -8.72456059	      7.76727036	      1.41430282	     -3.22352689	    -11.86437208	     -6.30076271	     29.03003695	     46.39008039	      0.00000000	      0.00000000	      8.54856895	    -11.03835789	    -11.93259002	     61.07827304	     47.03360522	      0.00000000	      0.00000000
     18.54478571	     -2.95955836	     -4.58473725	     -0.76215373	      0.79641903	      0.92203144	      0.48766606	     19.83643640	      1.82624478	    -12.63511845	     23.75440517	     23.75440517	      8.66760428	     -5.00124397	     -3.56642441	      9.94277886	    -10.28697512	     -3.42935992	     48.24392020	     48.24392020	     11.76525958	    -17.93389912	     -2.16009425	     -8.81426952	      7.97180886	      1.40744898	     -1.39042984	    -12.12534855	     -6.32367515	     29.96894306	     46.36602778	      0.00000000	      0.00000000	      7.69160492	    -10.48165156	    -11.38349045	     59.88259337	     46.96903745	      0.00000000	      0.00000000
     18.55842857	     -3.00732162	     -4.53557200	     -0.37201369	      0.79560727	      0.92302779	      0.48954169	     19.12393984	      1.82139906	    -13.19749470	     23.18302393	     23.18302393	      8.81760828	     -4.44590082	     -3.98785044	     12.43124230	    -10.31844256	     -2.28973089	     52.20233295	     52.20233295	     12.24648020	    -17.95743354	      3.88034223	     -8.76763185	      7.96622974	      1.87100681	      0.00244475	    -12.58828929	     -5.83535443	     31.55703389	     46.26256604	      0.00000000	      0.00000000	      8.14464377	    -10.03777751	     -9.41657556	     55.38110196	     46.77143997	      0.00000000	      0.00000000
     18.57207143	     -2.99964902	     -4.61224569	      0.01963717	      0.79465506	      0.92393688	      0.49142314	     18.36725991	      1.99999264	    -13.64762823	     22.60495632	     22.60495632	      8.98442931	     -4.12463515	     -4.19918971	     14.73468302	    -10.57785286	     -1.43805407	     55.48685729	     55.48685729	     12.04878122	    -17.94181127	      7.24687079	     -8.87192356	      8.06367276	      2.17881963	      1.56773516	    -13.04887467	     -5.66368963	     33.30525709	     46.17530380	      0.00000000	      0.00000000	      7.82834722	     -9.58925424	     -8.01840082	     52.82924795	     46.63676154	      0.00000000	      0.00000000
     18.58571429	     -3.02192776	     -4.73586611	      0.43441341	      0.79360094	      0.92472653	      0.49319379	     17.63195404	      2.24619329	    -14.06569576	     21.98937742	     21.98937742	      9.20346177	     -3.87148499	     -4.19488778	     16.91896534	    -10.90331217	     -0.73060016	     57.99782043	     57.99782043	     11.03280211	    -18.15542776	      7.66569968	     -8.93346576	      8.21224996	      2.11655719	      3.64177040	    -13.39611589	     -5.74019310	     34.37126462	     46.15073723	      0.00000000	      0.00000000	      6.87289956	     -9.10736446	     -7.53787039	     51.50279077	     46.57178121	      0.00000000	      0.00000000
     18.59935714	     -3.01823818	     -4.76783143	      0.83786039	      0.79238249	      0.92563636	      0.49489822	     16.88394884	      2.39613011	    -14.49433147	     21.37261236	     21.37261236	      9.35170093	     -3.54755232	     -4.23135755	     18.98063908	    -11.08850359	     -0.12969652	     59.87030076	     59.87030076	     10.46907692	    -18.21715609	      8.47589466	     -9.05903835	      8.19349264	      1.95642304	      5.85439605	    -13.66292440	     -5.71951918	     35.60197061	     46.11366011	      0.00000000	      0.00000000	      6.02671897	     -8.76144429	     -6.93371176	     49.41946968	     46.48914640	      0.00000000	      0.00000000
     18.61300000	     -2.99092700	     -4.69886052	      1.23286607	      0.79104092	      0.92659494	      0.49638568	     16.10494776	      2.43808252	    -14.89909809	     20.73249145	     20.73249145	      9.48591202	     -3.18659040	     -4.35122275	     20.91049927	    -11.10171860	      0.36514732	     61.10049553	     61.10049553	     10.37655376	    -18.24767884	      9.72653187	     -9.19594613	      8.10037526	      1.89349245	      8.03258764	    -13.97364792	     -5.51378981	     37.00004619	     46.05719324	      0.00000000	      0.00000000	      5.53257646	     -8.39858719	     -6.15171464	     46.52191893	     46.38566870	      0.00000000	      0.00000000
     18.62664286	     -2.98050260	     -4.56508142	      1.57912964	      0.78959933	      0.92753761	      0.49777304	     15.40202937	      2.41553658	    -15.20849711	     20.17724341	     20.17724341	      9.54147159	     -2.94916963	     -4.80935883	     22.75746704	    -10.99323768	      0.76585648	     61.72054379	     61.72054379	     10.94652648	    -18.15067088	     12.10291696	     -9.35410387	      7.94046546	      2.86857112	      9.31061108	    -14.95397206	     -4.62621833	     39.11151406	     45.91855371	      0.00000000	      0.00000000	      6.18284877	     -7.70830917	     -4.72236179	     41.90132865	     46.22044424	      0.00000000	      0.00000000
     18.64028571	     -3.00834754	     -4.50524043	      1.98540526	      0.78809741	      0.92838484	      0.49908814	     14.68090673	      2.50597005	    -15.50489595	     19.49385296	     19.49385296	      9.68910563	     -2.78660851	     -4.77963202	     24.47036482	    -10.96929384	      1.09763186	     61.51680021	     61.51680021	     10.88547058	    -18.21155797	     12.16630427	     -9.48614049	      7.83061075	      2.73463902	     11.59162695	    -15.21651756	     -4.70098569	     40.54921810	     45.88029749	      0.00000000	      0.00000000	      5.02992963	     -7.44785021	     -4.39690373	     40.57047947	     46.16350608	      0.00000000	      0.00000000
